<svg width="38" height="39" viewBox="0 0 38 39" fill="none" xmlns="http://www.w3.org/2000/svg">
<path d="M28.953 0.178101C28.7498 0.373413 28.7498 0.381226 28.7498 1.74841V3.1156H16.8748H4.99984V3.7406V4.3656H17.3045H29.617L29.8045 4.17029C29.992 3.9906 29.9998 3.94373 29.9998 2.92029V1.8656L32.9373 4.06873C35.2733 5.81873 35.8436 6.28748 35.7655 6.35779C35.7108 6.41248 34.3905 7.51404 32.8358 8.81091L29.9998 11.1625V9.83435C29.9998 8.52185 29.9998 8.49841 29.8045 8.31091L29.617 8.1156H21.9686C13.9217 8.1156 13.3748 8.13123 11.7967 8.47498C10.5076 8.75623 9.64827 9.06091 8.32015 9.72498C5.30452 11.225 3.05452 13.4906 1.56234 16.514C0.726398 18.2015 0.273273 19.7797 0.0779609 21.6312C-0.617352 28.3187 3.39827 34.7719 9.7264 37.1469C11.1717 37.6859 13.3514 38.1156 14.6639 38.1156H15.078V37.4906V36.8656H14.6561C13.9998 36.8656 12.4686 36.6469 11.617 36.4359C9.46077 35.889 7.3514 34.7406 5.67952 33.1859C0.742023 28.6156 -0.172039 21.2562 3.49984 15.6156C5.44515 12.6234 8.68734 10.389 12.1248 9.6781C13.5467 9.38904 14.203 9.3656 21.5623 9.3656H28.7498V11.0453C28.7498 12.7328 28.7498 12.7328 28.9451 12.9203C29.3514 13.3344 29.2733 13.3812 33.5076 9.85779C36.0155 7.77185 37.4451 6.53748 37.4686 6.42029C37.4998 6.31873 37.492 6.15466 37.4686 6.0531C37.4061 5.78748 29.742 0.0452881 29.3983 0.00622559C29.2108 -0.0172119 29.1014 0.0218506 28.953 0.178101Z" fill="#9A9A9A"/>
<path d="M0 3.7406V4.3656H0.625H1.25V3.7406V3.1156H0.625H0V3.7406Z" fill="#9A9A9A"/>
<path d="M2.5 3.7406V4.3656H3.125H3.75V3.7406V3.1156H3.125H2.5V3.7406Z" fill="#9A9A9A"/>
<path d="M14.0626 13.7797C14.0001 13.7953 13.6798 13.85 13.3595 13.8969C11.547 14.1938 9.77355 15.1234 8.39074 16.5063C6.71105 18.1859 5.78918 20.2406 5.65637 22.6156C5.50012 25.2719 6.47668 27.8109 8.39074 29.725C9.75012 31.0844 11.4064 31.9672 13.3204 32.3422C14.1251 32.5063 16.047 32.4828 16.8751 32.3031C18.7111 31.9047 20.2892 31.0453 21.6095 29.725C22.9767 28.35 23.8517 26.7094 24.2267 24.7953C24.3907 23.9906 24.3673 22.0688 24.1876 21.2406C23.797 19.4125 22.9376 17.8344 21.6095 16.5063C19.8048 14.7016 17.422 13.725 14.922 13.7484C14.5157 13.7563 14.1251 13.7719 14.0626 13.7797ZM15.0001 16.8656H15.6251V15.9438V15.0141L16.1017 15.0844C16.7423 15.1703 17.4142 15.35 18.0236 15.5922L18.5157 15.7875L18.3595 16.0531C18.2736 16.2016 18.1329 16.4359 18.047 16.5844L17.8907 16.85L18.4376 17.1625L18.9845 17.4828L19.2657 16.975C19.422 16.7016 19.5704 16.475 19.6095 16.475C19.8595 16.475 21.6407 18.2563 21.6407 18.5063C21.6407 18.5453 21.4142 18.6938 21.1407 18.85L20.6329 19.1313L20.9532 19.6781L21.2657 20.225L21.5079 20.0844C21.6486 19.9984 21.8829 19.8578 22.0392 19.7641L22.3282 19.6L22.5314 20.1156C22.7892 20.7484 23.047 21.8031 23.047 22.1938V22.4906H22.1486H21.2501V23.1156V23.7406H22.172H23.1017L23.0314 24.2172C22.9454 24.8578 22.7657 25.5297 22.5236 26.1391C22.3361 26.6156 22.3204 26.6313 22.1564 26.5297C22.0704 26.4672 21.8282 26.3266 21.6329 26.2094L21.2657 25.9984L20.9532 26.5531L20.6329 27.1L21.1407 27.3813C21.4142 27.5375 21.6407 27.6859 21.6407 27.725C21.6407 27.975 19.8595 29.7563 19.6095 29.7563C19.5704 29.7563 19.422 29.5297 19.2657 29.2563L18.9845 28.7563L18.4376 29.0688L17.8907 29.3891L18.0314 29.6313C18.1173 29.7641 18.2579 29.9984 18.3517 30.1547L18.5157 30.4438L18.0236 30.6391C17.4142 30.8813 16.7423 31.0609 16.1017 31.1469L15.6251 31.2172V30.2875V29.3656H15.0001H14.3751V30.2875V31.2172L13.8986 31.1469C13.2579 31.0609 12.5861 30.8813 11.9767 30.6391L11.4845 30.4438L11.6407 30.1781C11.7267 30.0297 11.8673 29.7953 11.9532 29.6469L12.1095 29.3813L11.5626 29.0688L11.0157 28.7484L10.7345 29.2563C10.5782 29.5297 10.4298 29.7563 10.3907 29.7563C10.1407 29.7563 8.35949 27.975 8.35949 27.725C8.35949 27.6859 8.58605 27.5375 8.85949 27.3813L9.3673 27.1L9.04699 26.5531L8.73449 26.0063L8.4923 26.1469C8.35168 26.2328 8.1173 26.3734 7.96105 26.4672L7.67199 26.6313L7.46887 26.1156C7.21105 25.4828 6.95324 24.4281 6.95324 24.0297V23.7406H7.85168H8.75012V23.1156V22.4906H7.82824H6.89855L6.96887 22.0141C7.0548 21.3734 7.23449 20.7016 7.47668 20.0922L7.67199 19.6L7.93762 19.7563C8.08605 19.8422 8.32043 19.9828 8.46887 20.0688L8.73449 20.225L9.04699 19.6781L9.3673 19.1313L8.85949 18.85C8.58605 18.6938 8.35949 18.5453 8.35949 18.5063C8.35949 18.2563 10.1407 16.475 10.3907 16.475C10.4298 16.475 10.5782 16.7016 10.7345 16.975L11.0157 17.4828L11.5626 17.1625L12.1095 16.85L11.9532 16.5844C11.8673 16.4359 11.7267 16.2016 11.6407 16.0531L11.4767 15.7875L12.0861 15.5531C12.672 15.3266 13.6017 15.1 14.1017 15.0531L14.3361 15.0297L14.3595 15.9438L14.3829 16.8656H15.0001Z" fill="#9A9A9A"/>
<path d="M14.375 20.725C14.375 23.1 14.3906 23.35 14.5156 23.4906C14.5859 23.5765 15.3594 24.0687 16.2266 24.5844L17.8047 25.5297L18.0156 25.1625C18.1328 24.9594 18.2812 24.7172 18.3359 24.6234C18.4453 24.4594 18.3984 24.4281 17.0391 23.6078L15.625 22.764V20.4437V18.1156H15H14.375V20.725Z" fill="#9A9A9A"/>
<path d="M28.7342 23.6781C28.7107 23.9906 28.7107 24.264 28.7185 24.2797C28.7576 24.3187 29.8748 24.4281 29.9139 24.389C29.9295 24.3812 29.9607 24.0844 29.9842 23.7406L30.0232 23.1156H29.3904H28.7654L28.7342 23.6781Z" fill="#9A9A9A"/>
<path d="M28.4377 26.0453C28.383 26.3187 28.3362 26.5765 28.3362 26.6078C28.3205 26.6703 29.1487 26.9281 29.3908 26.9359C29.4846 26.9437 29.5393 26.8343 29.6096 26.4906C29.6565 26.2484 29.719 25.975 29.7424 25.8812C29.7737 25.7328 29.7268 25.7093 29.3283 25.6312C28.5471 25.4671 28.5471 25.4671 28.4377 26.0453Z" fill="#9A9A9A"/>
<path d="M27.7031 28.3578C27.5859 28.6625 27.5 28.9125 27.5078 28.9203C27.5234 28.9281 27.7813 29.0531 28.0703 29.1937L28.6016 29.4437L28.7891 29.014C29.1406 28.225 29.1484 28.2406 28.5156 28.0062C28.2109 27.8969 27.9531 27.8031 27.9453 27.8031C27.9375 27.8031 27.8281 28.0531 27.7031 28.3578Z" fill="#9A9A9A"/>
<path d="M26.6405 30.4359C26.492 30.6859 26.3592 30.9125 26.3436 30.9359C26.328 30.9672 26.5389 31.1469 26.8123 31.3422L27.3045 31.7015L27.6405 31.1859C27.8202 30.8969 27.9686 30.6469 27.9686 30.6156C27.9686 30.5765 27.0155 29.9906 26.9452 29.9906C26.9295 29.9906 26.7889 30.1937 26.6405 30.4359Z" fill="#9A9A9A"/>
<path d="M25.125 32.389L24.7344 32.8109L25.1875 33.2562L25.6328 33.7015L26.0625 33.2406C26.2969 32.9828 26.4844 32.7562 26.4844 32.7328C26.4844 32.6781 25.5859 31.9359 25.5391 31.9515C25.5234 31.9594 25.3359 32.1547 25.125 32.389Z" fill="#9A9A9A"/>
<path d="M23.3983 33.9906C23.1873 34.1625 22.9998 34.3265 22.9842 34.3578C22.9764 34.389 23.117 34.6312 23.3123 34.8969L23.6483 35.3812L24.1717 34.9828L24.6951 34.5765L24.5154 34.3734C24.1092 33.9125 23.8748 33.6625 23.8358 33.6703C23.8045 33.6703 23.617 33.8109 23.3983 33.9906Z" fill="#9A9A9A"/>
<path d="M21.3984 35.2875L20.8828 35.5766L21.1172 36.0844C21.2422 36.3656 21.3594 36.6078 21.375 36.6235C21.4297 36.686 22.5 36.1391 22.5 36.0531C22.5 35.9906 22.0156 35.1156 21.9219 35.0141C21.9141 35.0063 21.6797 35.1313 21.3984 35.2875Z" fill="#9A9A9A"/>
<path d="M19.2421 36.1937C18.9765 36.2797 18.7343 36.3812 18.703 36.4125C18.664 36.4594 18.8749 37.4594 18.953 37.5609C18.9999 37.6156 20.1561 37.225 20.1561 37.1547C20.1561 37.0531 19.828 36.1391 19.7733 36.0766C19.7499 36.0453 19.5077 36.1 19.2421 36.1937Z" fill="#9A9A9A"/>
<path d="M16.7969 36.7406L16.2891 36.8265L16.3125 37.139C16.3203 37.3109 16.3516 37.5844 16.375 37.7562L16.4219 38.0531L16.8672 37.9984C17.6953 37.9047 17.6719 37.9125 17.6172 37.475C17.5391 36.9437 17.4688 36.6859 17.375 36.6625C17.3359 36.6547 17.0781 36.6937 16.7969 36.7406Z" fill="#9A9A9A"/>
</svg>
