<svg width="41" height="41" viewBox="0 0 41 41" fill="none" xmlns="http://www.w3.org/2000/svg">
<g clip-path="url(#clip0_758_23)">
<path d="M9.49724 0.123461C8.55172 0.370449 7.79029 1.07025 7.46393 1.97999L7.34263 2.32577L7.33009 4.19465C7.31334 6.35579 7.33009 6.47931 7.63964 7.11323C7.95341 7.75125 8.54334 8.26586 9.24198 8.5046C9.87795 8.72278 10.5389 8.72278 11.1748 8.5046C11.5974 8.36051 11.8944 8.17115 12.2333 7.8377C12.5806 7.50016 12.8023 7.14615 12.9571 6.68923L13.0701 6.35989L13.0868 4.51161C13.1035 2.37517 13.0868 2.23932 12.7814 1.62597C12.4467 0.946756 11.8443 0.423963 11.1246 0.185208C10.6477 0.0287823 9.96159 -3.27118e-05 9.49724 0.123461Z" fill="#9A9A9A"/>
<path d="M30.0054 0.119338C29.4782 0.251066 29.1017 0.461006 28.6959 0.860305C28.3026 1.24313 28.1018 1.5601 27.9428 2.03761C27.8466 2.31753 27.8424 2.37104 27.8299 4.22345C27.8132 6.40516 27.8257 6.48751 28.1395 7.12143C28.4574 7.75125 29.0389 8.2576 29.7209 8.50459C31.1057 8.99858 32.6662 8.36876 33.3021 7.06379C33.5699 6.50397 33.5741 6.47515 33.5741 4.34283C33.5741 2.42868 33.5741 2.40398 33.4778 2.09936C33.185 1.17727 32.5282 0.498054 31.6328 0.193435C31.1643 0.0287766 30.4823 -3.89442e-05 30.0054 0.119338Z" fill="#9A9A9A"/>
<path d="M0 22.9287V40.9588H20.5084H41.0125L40.9875 28.7041C40.9707 21.9613 40.9582 13.856 40.9582 10.6904V4.93972H38.0547H35.1512L35.1345 5.99768C35.1136 6.96914 35.1052 7.09261 35.0048 7.45487C34.281 10.143 31.2813 11.4808 28.7627 10.2376C27.5202 9.62424 26.6291 8.40988 26.4157 7.03913C26.3823 6.79624 26.3571 6.32286 26.3571 5.79183V4.93972H20.5042H14.6512L14.6345 5.99768C14.6136 6.96914 14.6052 7.09261 14.5048 7.45487C13.986 9.38551 12.2582 10.7028 10.25 10.7028C8.36734 10.7028 6.73156 9.55841 6.10818 7.80068C5.91987 7.26141 5.85714 6.78388 5.85714 5.80006V4.95207L4.00796 4.92737C2.98714 4.91091 1.66929 4.89856 1.07939 4.89856H0V22.9287ZM38.0714 26.5512V38.0772H20.5H2.92857V26.5512V15.0251H20.5H38.0714V26.5512Z" fill="#9A9A9A"/>
<path d="M14.3376 19.4709C13.4758 19.5326 12.4048 19.7591 11.6517 20.0348C11.3505 20.146 10.6267 20.4876 10.6267 20.5206C10.6267 20.5576 11.2961 22.8587 11.3086 22.8711C11.317 22.8834 11.522 22.797 11.7605 22.6858C13.4046 21.9202 15.1199 21.8584 15.9609 22.5335C16.3039 22.8094 16.4796 23.3239 16.396 23.7849C16.3416 24.0731 16.2705 24.2048 16.0571 24.4354C15.5509 24.9787 14.7435 25.1928 13.2164 25.1928H12.5512V26.3618V27.5309L13.5469 27.5515C14.2498 27.568 14.6305 27.5927 14.8522 27.6421C16.0655 27.9096 16.7432 28.5436 16.806 29.4739C16.8687 30.3713 16.3207 31.0423 15.2915 31.3345C14.9944 31.4169 14.8689 31.4293 14.1619 31.4293C13.4799 31.4293 13.3042 31.4169 12.9277 31.3345C12.342 31.2028 11.7814 31.0258 11.2794 30.8076C11.0492 30.7088 10.8568 30.6347 10.8442 30.6471C10.8233 30.6635 10.1665 33.047 10.1665 33.1005C10.1665 33.1499 10.9321 33.4875 11.3798 33.6315C12.4131 33.965 13.459 34.1049 14.6849 34.072C16.6219 34.0226 18.0946 33.5122 19.1153 32.5448C19.4961 32.1784 19.7429 31.845 19.9563 31.3963C20.2115 30.8653 20.3077 30.4207 20.3077 29.7826C20.3077 29.1323 20.2408 28.8358 19.9563 28.2554C19.5296 27.3827 18.6635 26.6994 17.6344 26.4236C17.1407 26.2919 17.1616 26.3001 17.2787 26.2507C17.3373 26.2301 17.559 26.1272 17.7766 26.0325C18.7681 25.5797 19.4375 24.8429 19.7136 23.892C19.8517 23.4145 19.8517 22.5459 19.7136 22.1054C19.2785 20.747 18.0946 19.8455 16.3542 19.5573C15.7601 19.4585 14.9861 19.4256 14.3376 19.4709Z" fill="#9A9A9A"/>
<path d="M25.4367 20.5453C24.3908 21.0228 23.5249 21.418 23.5206 21.4262C23.4997 21.4427 24.0143 23.7973 24.052 23.8591C24.0687 23.8879 24.5666 23.6738 25.4284 23.2745C26.1731 22.9247 26.7881 22.6406 26.8006 22.6406C26.809 22.6406 26.8174 25.1599 26.8174 28.239V33.8374H28.449H30.0806V26.757V19.6768H28.7126H27.3403L25.4367 20.5453Z" fill="#9A9A9A"/>
</g>
<defs>
<clipPath id="clip0_758_23">
<rect width="41" height="41" fill="white"/>
</clipPath>
</defs>
</svg>
