<svg width="40" height="40" viewBox="0 0 40 40" fill="none" xmlns="http://www.w3.org/2000/svg">
<path d="M6.64608 1.99389V3.99185L5.14382 4.00407C3.74562 4.02039 3.6144 4.02854 3.30218 4.11417C2.64608 4.2895 1.81802 4.70948 1.37458 5.09276C0.831602 5.55759 0.361011 6.27931 0.112142 7.03366L0.0171193 7.31909L0.00354477 21.8553C-0.005505 34.9073 -0.000980092 36.4281 0.0623685 36.7339C0.157391 37.1743 0.356486 37.6595 0.587253 38.0143C0.808973 38.3486 1.34291 38.8665 1.7592 39.1519C2.13929 39.4129 2.85422 39.7268 3.34291 39.845L3.72753 39.9389H19.9492H36.171L36.5556 39.8491C37.0307 39.735 37.7547 39.421 38.1166 39.1723C38.5239 38.8991 39.094 38.3405 39.3067 38.0183C39.4108 37.8593 39.5556 37.5821 39.6325 37.3986C39.9221 36.6769 39.904 37.7818 39.904 21.9613C39.904 8.06526 39.8994 7.55149 39.818 7.19674C39.5058 5.83486 38.4922 4.77472 37.0036 4.24465C36.3791 4.02446 36.1121 3.99592 34.6099 3.99592H33.2524V1.99796V0H31.0352H28.818V1.99796V3.99592H19.9492H11.0805V1.99796V0H8.86328H6.64608V1.99389ZM35.4696 24.9949V35.9633H19.9492H4.42888V24.9949V14.0265H19.9492H35.4696V24.9949Z" fill="#9A9A9A"/>
<path d="M13.9538 17.5005C13.9176 17.6595 13.3882 20.8521 13.3882 20.9296C13.3882 20.9949 13.6552 20.9989 17.8995 20.9989H22.4108L22.1348 21.2517C21.4289 21.9083 20.4334 23.0336 19.7366 23.9755C17.7411 26.6625 16.628 29.5535 16.3067 32.8725L16.275 33.1906H19.1257H21.9719L21.999 31.792C22.0262 30.3527 22.0895 29.6758 22.3022 28.5382C22.8814 25.4597 24.2026 22.634 26.2026 20.1916L26.5104 19.8165V18.6136V17.4108H20.2434H13.9764L13.9538 17.5005Z" fill="#9A9A9A"/>
</svg>
