<svg width="40" height="40" viewBox="0 0 40 40" fill="none" xmlns="http://www.w3.org/2000/svg">
<g clip-path="url(#clip0_758_38)">
<path d="M17.9603 0.327014C14.1165 0.725452 10.7962 1.99889 7.82749 4.22545C4.33527 6.85045 1.7259 10.7411 0.655588 14.9207C-0.1491 18.0536 -0.2116 21.0926 0.460275 24.2098C2.02278 31.4207 7.66343 37.2411 14.8353 39.0614C16.8431 39.5692 19.515 39.7723 21.5228 39.577C23.6399 39.3661 25.9056 38.7567 27.7962 37.9051C28.6399 37.5223 29.8353 36.8739 29.8353 36.7958C29.8353 36.7177 29.1165 35.5848 29.0697 35.5848C29.0384 35.5848 28.5697 35.8114 28.0306 36.0926C20.3509 40.0379 11.2025 38.1707 5.65559 31.5223C4.4134 30.0301 3.1634 27.8114 2.53059 25.9754C1.4134 22.7333 1.21809 19.0849 1.99934 15.7801C3.23371 10.5379 6.79623 6.03794 11.5853 3.67858C16.7962 1.10827 22.7571 1.1317 27.9212 3.74108C34.8587 7.24891 38.7571 14.7645 37.679 22.5458C37.4837 23.9833 36.929 25.9677 36.3978 27.1707L36.2337 27.5458L35.9837 27.3661C35.8431 27.2723 35.3197 26.8973 34.8118 26.5379C34.3041 26.1786 33.8743 25.8973 33.8509 25.9207C33.8041 25.9677 33.1165 33.2645 33.1556 33.3114C33.1869 33.3348 39.5618 30.4364 39.8353 30.2723C39.9759 30.1864 40.0931 30.2879 38.7415 29.3348C38.1165 28.8973 37.5775 28.5145 37.5462 28.4833C37.515 28.452 37.5931 28.1786 37.7259 27.8817C38.3353 26.5301 38.9212 24.5067 39.1712 22.8505C39.3743 21.5458 39.4134 19.202 39.2571 17.8505C38.7181 13.2489 36.7571 9.12388 33.6009 5.99889C30.3899 2.8192 26.4446 0.912951 21.9446 0.389514C21.0697 0.287951 18.7103 0.248889 17.9603 0.327014Z" fill="#9A9A9A"/>
<path d="M11.0461 13.952C9.31953 14.2177 7.90547 15.4364 7.22582 17.249L7.02267 17.7724H7.75702H8.48359L8.58519 17.413C8.72582 16.9286 9.1789 16.2411 9.63204 15.8427C10.1476 15.3896 10.7023 15.1943 11.468 15.1943C12.1867 15.1943 12.6555 15.3896 12.9446 15.8271C13.1086 16.0536 13.1242 16.163 13.093 16.6005C13.0305 17.5536 12.4992 18.2958 11.5774 18.7255C11.1555 18.9208 10.9367 18.9755 10.343 19.0067L9.60862 19.0458L9.46016 19.6005L9.3117 20.1552L10.1399 20.1943C11.507 20.2646 12.0695 20.6708 12.1555 21.663C12.2648 22.8896 11.3899 24.0927 10.0305 24.5771C9.47582 24.7802 8.46799 24.8192 8.01485 24.6552C7.24925 24.3896 6.88987 23.7255 6.96799 22.7177L7.00702 22.1474H6.31953H5.62423L5.53048 22.4755C5.38985 22.9833 5.40548 23.9208 5.56173 24.3818C5.97582 25.5848 7.4133 26.2177 9.23359 25.9833C10.5695 25.8114 11.5852 25.3348 12.4133 24.499C13.5695 23.3271 14.0695 21.5146 13.5461 20.452C13.3352 20.038 12.9367 19.702 12.5539 19.6083C12.4289 19.5771 12.3352 19.5302 12.3352 19.499C12.3352 19.4755 12.5539 19.3271 12.8117 19.1786C13.718 18.663 14.3274 17.913 14.5539 17.0302C15.0305 15.202 14.132 14.0614 12.1008 13.9208C11.7805 13.8974 11.3039 13.913 11.0461 13.952Z" fill="#9A9A9A"/>
<path d="M20.9681 13.9521C19.8822 14.1161 19.0853 14.538 18.1869 15.4286C17.1399 16.4521 16.5697 17.4365 15.9212 19.3271C15.2415 21.2958 15.0306 23.1786 15.3743 24.2646C15.7728 25.5224 16.9446 26.163 18.5775 26.0146C20.5227 25.8349 21.9759 24.8271 22.8509 23.038C23.765 21.1708 23.554 19.3583 22.3197 18.5849C21.3665 17.9833 19.5697 18.0537 18.3899 18.7411C18.2103 18.8505 17.8743 19.1005 17.6478 19.3114C17.2337 19.6786 17.2337 19.6865 17.2884 19.4521C17.3978 18.9911 17.9056 17.8037 18.2181 17.2646C18.6399 16.538 19.4603 15.7177 20.0462 15.4521C20.6712 15.1552 21.6946 15.1005 22.1634 15.3427C22.5618 15.5458 22.804 15.9365 22.8587 16.4833L22.9056 16.913H23.5931H24.2806L24.3353 16.5537C24.4446 15.7802 24.1321 14.8349 23.6399 14.4599C23.0384 13.999 21.9681 13.7958 20.9681 13.9521ZM20.9837 19.6318C21.8353 20.0693 22.0618 21.038 21.6243 22.3661C21.1946 23.663 20.1087 24.6239 18.8978 24.7646C17.0071 24.9833 16.1712 23.3974 17.1087 21.3896C17.5306 20.4911 18.4446 19.7177 19.3353 19.499C19.8118 19.3739 20.6087 19.4443 20.9837 19.6318Z" fill="#9A9A9A"/>
<path d="M27.9288 14.0771C27.7881 14.3584 25.2257 20.1084 25.2257 20.1474C25.2257 20.1631 25.4834 20.2021 25.796 20.2334L26.3741 20.2881L26.7881 19.9755C28.3741 18.7725 30.2413 18.8506 30.8897 20.1397C31.546 21.4599 30.5538 23.7021 28.9991 24.4287C28.546 24.6474 28.3585 24.6865 27.7257 24.7099C27.0304 24.7412 26.96 24.7255 26.5538 24.5146C25.9522 24.1943 25.6553 23.7099 25.6553 23.0303V22.5381H24.9366H24.2178L24.1632 22.8193C24.0694 23.3115 24.171 24.2725 24.3428 24.6084C25.2804 26.4131 28.5616 26.5146 30.671 24.8037C32.3975 23.4131 33.1944 20.7099 32.3506 19.1474C32.0928 18.6709 31.6475 18.2881 31.0928 18.0693C30.7257 17.9209 30.4991 17.8974 29.7178 17.8974C28.6866 17.8974 28.1944 18.0303 27.5147 18.4834C27.3272 18.6084 27.1788 18.6943 27.1788 18.6787C27.1788 18.6631 27.5304 17.8818 27.96 16.9443L28.7334 15.2334L31.1944 15.2099L33.6553 15.1943L33.7413 14.8584C33.7881 14.6787 33.8585 14.4287 33.8975 14.3037C34.0538 13.8427 34.2334 13.8662 31.0069 13.8662H28.046L27.9288 14.0771Z" fill="#9A9A9A"/>
</g>
<defs>
<clipPath id="clip0_758_38">
<rect width="40" height="40" fill="white"/>
</clipPath>
</defs>
</svg>
