<svg width="43" height="43" viewBox="0 0 43 43" fill="none" xmlns="http://www.w3.org/2000/svg">
<path d="M21.5003 0C9.64658 0 0 9.64576 0 21.4996C0 33.353 9.6459 43 21.5003 43C33.3546 43 42.9985 33.3545 42.9985 21.5004C42.9985 9.6465 33.3544 0 21.5003 0ZM38.5675 22.4365C38.2937 22.7534 37.9065 22.9485 37.4871 22.9785C37.4492 22.9813 37.4104 22.9843 37.3724 22.9843C37.3631 22.9843 37.3546 22.9785 37.3466 22.9785C37.3173 22.98 37.2899 22.9871 37.2598 22.9871C36.6935 22.9871 36.201 22.6867 35.9222 22.2373L33.0546 19.7612C32.5714 19.3436 32.3873 18.6769 32.5872 18.07C32.7887 17.4643 33.3357 17.0384 33.9716 16.9915L34.9687 16.9191C33.069 11.0573 27.5636 6.80407 21.0769 6.80407C13.0239 6.80407 6.47244 13.3556 6.47244 21.4093C6.47244 29.4619 13.0238 36.0141 21.0769 36.0141C25.7383 36.0141 30.1599 33.7574 32.9042 29.9794C33.4161 29.2755 34.4031 29.1164 35.1093 29.6296C35.8147 30.1414 35.971 31.1293 35.4592 31.8347C32.1229 36.429 26.7464 39.1712 21.077 39.1712C11.2827 39.1712 3.31442 31.2038 3.31442 21.4093C3.31442 11.6147 11.2829 3.64703 21.077 3.64703C29.2317 3.64703 36.1058 9.17946 38.1819 16.6841L40.0952 16.5447C40.724 16.4904 41.3346 16.8382 41.6206 17.4102C41.9095 17.9804 41.8222 18.6691 41.4048 19.1515L38.5675 22.4365ZM22.7706 24.329V22.6831L26.8654 16.0894H29.9616V22.4338H31.2613V24.3307H29.9616V26.9121H27.5637V24.3307H22.7707L22.7706 24.329ZM17.0042 17.9371C16.0718 17.9371 15.2571 18.4031 14.6911 18.8372L13.9746 17.0216C14.791 16.4073 16.0564 15.905 17.521 15.905C19.9683 15.905 21.3167 17.3374 21.3167 19.3016C21.3167 21.117 20.002 22.5655 18.4371 23.9633L17.4381 24.7971V24.8294H21.5171V26.9111H13.8418V25.3784L15.2395 24.1139C17.6047 21.9995 18.7536 20.7836 18.7858 19.5191C18.7867 18.6368 18.2543 17.9371 17.0042 17.9371Z" fill="#9A9A9A"/>
</svg>
